<?xml version="1.0" encoding="iso-8859-1"?>
<!-- Generator: Adobe Illustrator 16.0.0, SVG Export Plug-In . SVG Version: 6.00 Build 0)  -->
<!DOCTYPE svg PUBLIC "-//W3C//DTD SVG 1.1//EN" "http://www.w3.org/Graphics/SVG/1.1/DTD/svg11.dtd">
<svg version="1.1" id="Capa_1" xmlns="http://www.w3.org/2000/svg" xmlns:xlink="http://www.w3.org/1999/xlink" x="0px" y="0px"
	 width="474.242px" height="474.242px" viewBox="0 0 474.242 474.242" style="enable-background:new 0 0 474.242 474.242;"
	 xml:space="preserve">
<g>
	<g id="Layer_2_31_">
		<path d="M103.533,60.167c3.041-6.962,9.917-9.065,17.519-9.065h44.781C158.116,21.707,131.436,0,99.622,0
			C61.773,0,31.087,30.677,31.087,68.525c0,37.849,30.686,68.535,68.535,68.535c17.212,0,32.904-6.397,44.943-16.878l-37.571-40.574
			C101.84,74.033,100.482,67.119,103.533,60.167z"/>
		<path d="M298.837,236.567v-9.955L443.155,70.227h-0.88H168.061h-47.019l34.683,37.581l104.862,113.622v9.313v14.726v193.297
			c-45.04,1.693-78.891,8.902-78.891,17.547c0,9.906,44.418,17.93,99.211,17.93s99.211-8.023,99.211-17.93
			c0-8.797-35.056-16.094-81.281-17.623V250.174V236.567z M219.153,127.602l-35.066-38.25h191.25l-39.847,38.25H219.153z"/>
	</g>
</g>
<g>
</g>
<g>
</g>
<g>
</g>
<g>
</g>
<g>
</g>
<g>
</g>
<g>
</g>
<g>
</g>
<g>
</g>
<g>
</g>
<g>
</g>
<g>
</g>
<g>
</g>
<g>
</g>
<g>
</g>
</svg>
